<?xml version="1.0" encoding="utf-8"?>
<!-- Generator: Adobe Illustrator 24.0.0, SVG Export Plug-In . SVG Version: 6.00 Build 0)  -->
<svg version="1.1" id="Ebene_1" xmlns="http://www.w3.org/2000/svg" xmlns:xlink="http://www.w3.org/1999/xlink" x="0px" y="0px"
	 viewBox="0 0 64 64" style="enable-background:new 0 0 64 64;" xml:space="preserve">
<style type="text/css">
	.st0{fill:#FFFFFF;}
</style>
<path class="st0" d="M60.6,28.8H34.8V3c0-1.7-1.3-3-3-3c-1.7,0-3,1.3-3,3v25.8H3c-1.7,0-3,1.3-3,3c0,1.7,1.3,3,3,3h25.8v25.8
	c0,1.7,1.3,3,3,3c1.7,0,3-1.3,3-3V34.8h25.8c1.7,0,3-1.3,3-3C63.6,30.1,62.3,28.8,60.6,28.8z"/>
</svg>
